<?xml version="1.0" encoding="UTF-8" standalone="no"?>
<!-- Created with Inkscape (http://www.inkscape.org/) -->

<svg
   xmlns:dc="http://purl.org/dc/elements/1.1/"
   xmlns:cc="http://creativecommons.org/ns#"
   xmlns:rdf="http://www.w3.org/1999/02/22-rdf-syntax-ns#"
   xmlns:svg="http://www.w3.org/2000/svg"
   xmlns="http://www.w3.org/2000/svg"
   xmlns:sodipodi="http://sodipodi.sourceforge.net/DTD/sodipodi-0.dtd"
   xmlns:inkscape="http://www.inkscape.org/namespaces/inkscape"
   width="250"
   height="250"
   id="svg6150"
   version="1.1"
   inkscape:version="0.48.4 r9939"
   sodipodi:docname="line.svg">
  <defs
     id="defs6152">
    <clipPath
       clipPathUnits="userSpaceOnUse"
       id="clipPath3595">
      <path
         inkscape:connector-curvature="0"
         d="M 0,0 473,0 473,407 0,407 0,0 z"
         clip-rule="evenodd"
         id="path3597" />
    </clipPath>
    <clipPath
       clipPathUnits="userSpaceOnUse"
       id="clipPath3601">
      <path
         inkscape:connector-curvature="0"
         d="m 10,56.5 100,0 0,100 -100,0 0,-100 z"
         clip-rule="evenodd"
         id="path3603" />
    </clipPath>
    <clipPath
       clipPathUnits="userSpaceOnUse"
       id="clipPath3607">
      <path
         inkscape:connector-curvature="0"
         d="m 10,56.5 100,0 0,100 -100,0 0,-100 z"
         clip-rule="evenodd"
         id="path3609" />
    </clipPath>
    <clipPath
       clipPathUnits="userSpaceOnUse"
       id="clipPath3665">
      <path
         inkscape:connector-curvature="0"
         d="M 0,0 473,0 473,407 0,407 0,0 z"
         clip-rule="evenodd"
         id="path3667" />
    </clipPath>
    <clipPath
       clipPathUnits="userSpaceOnUse"
       id="clipPath3671">
      <path
         inkscape:connector-curvature="0"
         d="m 10,56.5 100,0 0,100 -100,0 0,-100 z"
         clip-rule="evenodd"
         id="path3673" />
    </clipPath>
    <clipPath
       clipPathUnits="userSpaceOnUse"
       id="clipPath3677">
      <path
         inkscape:connector-curvature="0"
         d="m 10,56.5 100,0 0,100 -100,0 0,-100 z"
         clip-rule="evenodd"
         id="path3679" />
    </clipPath>
    <clipPath
       clipPathUnits="userSpaceOnUse"
       id="clipPath3683">
      <path
         inkscape:connector-curvature="0"
         d="m 42,80 63,0 0,38.5 -63,0 0,-38.5 z"
         id="path3685" />
    </clipPath>
    <clipPath
       clipPathUnits="userSpaceOnUse"
       id="clipPath3755">
      <path
         inkscape:connector-curvature="0"
         d="M 0,0 473,0 473,407 0,407 0,0 z"
         clip-rule="evenodd"
         id="path3757" />
    </clipPath>
    <clipPath
       clipPathUnits="userSpaceOnUse"
       id="clipPath3761">
      <path
         inkscape:connector-curvature="0"
         d="m 10,56.5 100,0 0,100 -100,0 0,-100 z"
         clip-rule="evenodd"
         id="path3763" />
    </clipPath>
    <clipPath
       clipPathUnits="userSpaceOnUse"
       id="clipPath3767">
      <path
         inkscape:connector-curvature="0"
         d="m 10,56.5 100,0 0,100 -100,0 0,-100 z"
         clip-rule="evenodd"
         id="path3769" />
    </clipPath>
    <clipPath
       clipPathUnits="userSpaceOnUse"
       id="clipPath4135">
      <path
         inkscape:connector-curvature="0"
         d="M 0,0 473,0 473,407 0,407 0,0 z"
         clip-rule="evenodd"
         id="path4137" />
    </clipPath>
    <clipPath
       clipPathUnits="userSpaceOnUse"
       id="clipPath4141">
      <path
         inkscape:connector-curvature="0"
         d="m 10,156.5 100,0 0,100 -100,0 0,-100 z"
         clip-rule="evenodd"
         id="path4143" />
    </clipPath>
    <clipPath
       clipPathUnits="userSpaceOnUse"
       id="clipPath4147">
      <path
         inkscape:connector-curvature="0"
         d="m 10,156.5 100,0 0,100 -100,0 0,-100 z"
         clip-rule="evenodd"
         id="path4149" />
    </clipPath>
    <clipPath
       clipPathUnits="userSpaceOnUse"
       id="clipPath4205">
      <path
         inkscape:connector-curvature="0"
         d="M 0,0 473,0 473,407 0,407 0,0 z"
         clip-rule="evenodd"
         id="path4207" />
    </clipPath>
    <clipPath
       clipPathUnits="userSpaceOnUse"
       id="clipPath4211">
      <path
         inkscape:connector-curvature="0"
         d="m 10,156.5 100,0 0,100 -100,0 0,-100 z"
         clip-rule="evenodd"
         id="path4213" />
    </clipPath>
    <clipPath
       clipPathUnits="userSpaceOnUse"
       id="clipPath4217">
      <path
         inkscape:connector-curvature="0"
         d="m 10,156.5 100,0 0,100 -100,0 0,-100 z"
         clip-rule="evenodd"
         id="path4219" />
    </clipPath>
    <clipPath
       clipPathUnits="userSpaceOnUse"
       id="clipPath4223">
      <path
         inkscape:connector-curvature="0"
         d="m 39,180 66,0 0,38.5 -66,0 0,-38.5 z"
         id="path4225" />
    </clipPath>
    <clipPath
       clipPathUnits="userSpaceOnUse"
       id="clipPath4273">
      <path
         inkscape:connector-curvature="0"
         d="M 0,0 473,0 473,407 0,407 0,0 z"
         clip-rule="evenodd"
         id="path4275" />
    </clipPath>
    <clipPath
       clipPathUnits="userSpaceOnUse"
       id="clipPath4279">
      <path
         inkscape:connector-curvature="0"
         d="m 10,156.5 100,0 0,100 -100,0 0,-100 z"
         clip-rule="evenodd"
         id="path4281" />
    </clipPath>
    <clipPath
       clipPathUnits="userSpaceOnUse"
       id="clipPath4285">
      <path
         inkscape:connector-curvature="0"
         d="m 10,156.5 100,0 0,100 -100,0 0,-100 z"
         clip-rule="evenodd"
         id="path4287" />
    </clipPath>
  </defs>
  <sodipodi:namedview
     id="base"
     pagecolor="#ffffff"
     bordercolor="#666666"
     borderopacity="1.0"
     inkscape:pageopacity="0.0"
     inkscape:pageshadow="2"
     inkscape:zoom="0.49497475"
     inkscape:cx="19.79396"
     inkscape:cy="-24.572263"
     inkscape:document-units="px"
     inkscape:current-layer="layer1"
     showgrid="false"
     inkscape:window-width="1855"
     inkscape:window-height="1056"
     inkscape:window-x="65"
     inkscape:window-y="24"
     inkscape:window-maximized="1"
     fit-margin-top="0"
     fit-margin-left="0"
     fit-margin-right="0"
     fit-margin-bottom="0" />
  <metadata
     id="metadata6155">
    <rdf:RDF>
      <cc:Work
         rdf:about="">
        <dc:format>image/svg+xml</dc:format>
        <dc:type
           rdf:resource="http://purl.org/dc/dcmitype/StillImage" />
        <dc:title></dc:title>
      </cc:Work>
    </rdf:RDF>
  </metadata>
  <g
     inkscape:label="Layer 1"
     inkscape:groupmode="layer"
     id="layer1"
     transform="translate(-236.63461,-381.8798)">
    <g
       transform="matrix(2.5,0,0,-2.5,211.63461,1008.1298)"
       id="g5863">
      <g
         transform="matrix(1,0,0,-1,0,407)"
         clip-path="url(#clipPath4135)"
         id="g4133">
        <g
           clip-path="url(#clipPath4141)"
           id="g4139">
          <g
             clip-path="url(#clipPath4147)"
             id="g4145">
            <g
               id="g4151" />
            <g
               id="g4153">
              <path
                 inkscape:connector-curvature="0"
                 id="path4155"
                 style="fill:#ffffff;fill-opacity:1;fill-rule:nonzero;stroke:none"
                 d="m 10,156.5 100,0 0,100 -100,0 0,-100 z" />
            </g>
            <g
               transform="matrix(0.5,0,0,0.5,10,156.5)"
               id="g4157">
              <path
                 inkscape:connector-curvature="0"
                 id="path4159"
                 style="fill:none;stroke:#c0c0c0;stroke-width:1;stroke-linecap:butt;stroke-linejoin:miter;stroke-miterlimit:10;stroke-opacity:1;stroke-dasharray:none"
                 d="m 58,46.5 132,0" />
            </g>
            <g
               id="g4161" />
            <g
               transform="matrix(0.5,0,0,0.5,10,156.5)"
               id="g4163">
              <path
                 inkscape:connector-curvature="0"
                 id="path4165"
                 style="fill:none;stroke:#c0c0c0;stroke-width:1;stroke-linecap:butt;stroke-linejoin:miter;stroke-miterlimit:10;stroke-opacity:1;stroke-dasharray:none"
                 d="m 58,86.5 132,0" />
            </g>
            <g
               id="g4167" />
            <g
               transform="matrix(0.5,0,0,0.5,10,156.5)"
               id="g4169">
              <path
                 inkscape:connector-curvature="0"
                 id="path4171"
                 style="fill:none;stroke:#c0c0c0;stroke-width:1;stroke-linecap:butt;stroke-linejoin:miter;stroke-miterlimit:10;stroke-opacity:1;stroke-dasharray:none"
                 d="m 58,124.5 132,0" />
            </g>
            <g
               id="g4173" />
            <g
               transform="matrix(0.5,0,0,0.5,10,156.5)"
               id="g4175">
              <path
                 inkscape:connector-curvature="0"
                 id="path4177"
                 style="fill:none;stroke:#c0d0e0;stroke-width:1;stroke-linecap:butt;stroke-linejoin:miter;stroke-miterlimit:10;stroke-opacity:1;stroke-dasharray:none"
                 d="m 123.5,124 0,10" />
            </g>
            <g
               id="g4179" />
            <g
               transform="matrix(0.5,0,0,0.5,10,156.5)"
               id="g4181">
              <path
                 inkscape:connector-curvature="0"
                 id="path4183"
                 style="fill:none;stroke:#c0d0e0;stroke-width:1;stroke-linecap:butt;stroke-linejoin:miter;stroke-miterlimit:10;stroke-opacity:1;stroke-dasharray:none"
                 d="m 58,124.5 132,0" />
            </g>
            <g
               id="g4185" />
            <g
               id="g4187" />
            <g
               transform="matrix(0,-0.5,0.5,0,-20.25,211.75)"
               id="g4189">
              <g
                 id="g4191">
                <text
                   id="text4193"
                   transform="translate(4.5,85.5)">
                  <tspan
                     id="tspan4195"
                     sodipodi:role="line"
                     y="0"
                     x="0 7 15 18 26 34"
                     style="font-size:12px;font-variant:normal;font-weight:normal;writing-mode:lr-tb;fill:#707070;fill-opacity:1;fill-rule:nonzero;stroke:none;font-family:DejaVu Sans;-inkscape-font-specification:DejaVuSans">Values</tspan>
                </text>
              </g>
            </g>
            <g
               id="g4197" />
            <g
               id="g4199" />
          </g>
        </g>
      </g>
      <g
         transform="matrix(1,0,0,-1,0,407)"
         id="g4201">
        <g
           id="g4203"
           clip-path="url(#clipPath4205)">
          <g
             id="g4209"
             clip-path="url(#clipPath4211)">
            <g
               id="g4215"
               clip-path="url(#clipPath4217)">
              <g
                 id="g4221"
                 clip-path="url(#clipPath4223)">
                <g
                   id="g4227" />
                <g
                   id="g4229"
                   transform="matrix(0.5,0,0,0.5,39,180)">
                  <path
                     d="M 1.3363814,38.5 44.445461,28.875 87.554542,19.25 130.66362,9.625"
                     style="fill:none;stroke:#7cb5ec;stroke-width:2;stroke-linecap:round;stroke-linejoin:round;stroke-miterlimit:10;stroke-opacity:1;stroke-dasharray:none"
                     id="path4231"
                     inkscape:connector-curvature="0" />
                </g>
                <g
                   id="g4233">
                  <g
                     id="g4235">
                    <path
                       d="m 34.668191,193.75 5,0 0,5.5 -1.198481,-5.36783 21.55454,-4.81251 1.198481,5.36784 -1.198481,-5.36784 21.55454,-4.8125 1.198481,5.36784 -1.198481,-5.36784 21.55454,-4.8125 c 0.385,-0.0868 0.78645,-0.13216 1.19848,-0.13216 l 0,0 5,0 0,11 -5,0 0,-5.5 1.19848,5.36783 -21.554538,4.8125 c 0.0012,9.6e-4 0.0012,9.6e-4 0.0027,6e-4 l -0.0027,-6e-4 -21.554541,4.8125 -1.19848,-5.36783 1.19848,5.36783 -21.55454,4.8125 c -0.385001,0.0869 -0.786449,0.13217 -1.19848,0.13217 l 0,0 -5,0 0,-11 z"
                       style="fill:#c0c0c0;fill-opacity:0;fill-rule:nonzero;stroke:none"
                       id="path4237"
                       inkscape:connector-curvature="0" />
                  </g>
                </g>
              </g>
            </g>
          </g>
        </g>
      </g>
      <g
         transform="matrix(1,0,0,-1,0,407)"
         id="g4269">
        <g
           id="g4271"
           clip-path="url(#clipPath4273)">
          <g
             id="g4277"
             clip-path="url(#clipPath4279)">
            <g
               id="g4283"
               clip-path="url(#clipPath4285)">
              <g
                 id="g4289" />
              <g
                 id="g4291" />
              <g
                 id="g4293">
                <path
                   d="m 104,182.8125 c 2.664,0 2.664,4 0,4 -2.664,0 -2.664,-4 0,-4 z"
                   style="fill:#7cb5ec;fill-opacity:1;fill-rule:nonzero;stroke:none"
                   id="path4295"
                   inkscape:connector-curvature="0" />
              </g>
              <g
                 id="g4297"
                 transform="matrix(0.5,0,0,0.5,39,180)">
                <path
                   d="m 130,5.625 c 5.328,0 5.328,8 0,8 -5.328,0 -5.328,-8 0,-8 z"
                   style="fill:none;stroke:#ffffff;stroke-width:0.00001;stroke-linecap:butt;stroke-linejoin:miter;stroke-miterlimit:10;stroke-opacity:1;stroke-dasharray:none"
                   id="path4299"
                   inkscape:connector-curvature="0" />
              </g>
              <g
                 id="g4301">
                <path
                   d="m 82.5,187.625 c 2.664001,0 2.664001,4 0,4 -2.664002,0 -2.664002,-4 0,-4 z"
                   style="fill:#7cb5ec;fill-opacity:1;fill-rule:nonzero;stroke:none"
                   id="path4303"
                   inkscape:connector-curvature="0" />
              </g>
              <g
                 id="g4305"
                 transform="matrix(0.5,0,0,0.5,39,180)">
                <path
                   d="m 87,15.25 c 5.328003,0 5.328003,8 0,8 -5.328003,0 -5.328003,-8 0,-8 z"
                   style="fill:none;stroke:#ffffff;stroke-width:0.00001;stroke-linecap:butt;stroke-linejoin:miter;stroke-miterlimit:10;stroke-opacity:1;stroke-dasharray:none"
                   id="path4307"
                   inkscape:connector-curvature="0" />
              </g>
              <g
                 id="g4309">
                <path
                   d="m 61,192.4375 c 2.664,0 2.664,4 0,4 -2.664,0 -2.664,-4 0,-4 z"
                   style="fill:#7cb5ec;fill-opacity:1;fill-rule:nonzero;stroke:none"
                   id="path4311"
                   inkscape:connector-curvature="0" />
              </g>
              <g
                 id="g4313"
                 transform="matrix(0.5,0,0,0.5,39,180)">
                <path
                   d="m 44,24.875 c 5.327999,0 5.327999,8 0,8 -5.327999,0 -5.327999,-8 0,-8 z"
                   style="fill:none;stroke:#ffffff;stroke-width:0.00001;stroke-linecap:butt;stroke-linejoin:miter;stroke-miterlimit:10;stroke-opacity:1;stroke-dasharray:none"
                   id="path4315"
                   inkscape:connector-curvature="0" />
              </g>
              <g
                 id="g4317">
                <path
                   d="m 39.5,197.25 c 2.664,0 2.664,4 0,4 -2.664,0 -2.664,-4 0,-4 z"
                   style="fill:#7cb5ec;fill-opacity:1;fill-rule:nonzero;stroke:none"
                   id="path4319"
                   inkscape:connector-curvature="0" />
              </g>
              <g
                 id="g4321"
                 transform="matrix(0.5,0,0,0.5,39,180)">
                <path
                   d="m 1,34.5 c 5.3280001,0 5.3280001,8 0,8 -5.3280001,0 -5.3280001,-8 0,-8 z"
                   style="fill:none;stroke:#ffffff;stroke-width:0.00001;stroke-linecap:butt;stroke-linejoin:miter;stroke-miterlimit:10;stroke-opacity:1;stroke-dasharray:none"
                   id="path4323"
                   inkscape:connector-curvature="0" />
              </g>
              <g
                 id="g4325" />
              <g
                 id="g4327" />
              <g
                 id="g4329"
                 transform="matrix(0.5,0,0,0.5,10,156.5)">
                <g
                   id="g4331">
                  <text
                     transform="translate(84,25)"
                     id="text4333">
                    <tspan
                       style="font-size:18px;font-variant:normal;font-weight:normal;writing-mode:lr-tb;fill:#333333;fill-opacity:1;fill-rule:nonzero;stroke:none;font-family:DejaVu Sans;-inkscape-font-specification:DejaVuSans"
                       x="0 5 10 21"
                       y="0"
                       sodipodi:role="line"
                       id="tspan4335">line</tspan>
                  </text>
                </g>
              </g>
              <g
                 id="g4337" />
              <g
                 id="g4339" />
              <g
                 id="g4341" />
              <g
                 id="g4343"
                 transform="matrix(0.5,0,0,0.5,43,241)">
                <path
                   d="m 0,11 16,0"
                   style="fill:none;stroke:#7cb5ec;stroke-width:2;stroke-linecap:butt;stroke-linejoin:miter;stroke-miterlimit:10;stroke-opacity:1;stroke-dasharray:none"
                   id="path4345"
                   inkscape:connector-curvature="0" />
              </g>
              <g
                 id="g4347">
                <path
                   d="m 47,244.5 c 2.664,0 2.664,4 0,4 -2.664,0 -2.664,-4 0,-4 z"
                   style="fill:#7cb5ec;fill-opacity:1;fill-rule:nonzero;stroke:none"
                   id="path4349"
                   inkscape:connector-curvature="0" />
              </g>
              <g
                 id="g4351"
                 transform="matrix(0.5,0,0,0.5,43,241)">
                <path
                   d="m 8,7 c 5.328,0 5.328,8 0,8 C 2.6719999,15 2.6719999,7 8,7 z"
                   style="fill:none;stroke:#ffffff;stroke-width:0.00001;stroke-linecap:butt;stroke-linejoin:miter;stroke-miterlimit:10;stroke-opacity:1;stroke-dasharray:none"
                   id="path4353"
                   inkscape:connector-curvature="0" />
              </g>
              <g
                 id="g4355" />
              <g
                 id="g4357"
                 transform="matrix(0.5,0,0,0.5,43,241)">
                <g
                   id="g4359">
                  <text
                     transform="translate(21,15)"
                     id="text4361">
                    <tspan
                       style="font-size:12px;font-variant:normal;font-weight:bold;writing-mode:lr-tb;fill:#333333;fill-opacity:1;fill-rule:nonzero;stroke:none;font-family:Verdana;-inkscape-font-specification:Verdana-Bold"
                       x="0 9 17 23 27 35 42 46"
                       y="0"
                       sodipodi:role="line"
                       id="tspan4363">Series 1</tspan>
                  </text>
                </g>
              </g>
              <g
                 id="g4365" />
              <g
                 id="g4367" />
              <g
                 id="g4369" />
              <g
                 id="g4371"
                 transform="matrix(0.5,0,0,0.5,10,156.5)">
                <g
                   id="g4373">
                  <text
                     transform="translate(115,144)"
                     id="text4375">
                    <tspan
                       style="font-size:11px;font-variant:normal;font-weight:normal;writing-mode:lr-tb;fill:#606060;fill-opacity:1;fill-rule:nonzero;stroke:none;font-family:DejaVu Sans;-inkscape-font-specification:DejaVuSans"
                       x="0 7 11"
                       y="0"
                       sodipodi:role="line"
                       id="tspan4377">2.5</tspan>
                  </text>
                </g>
              </g>
              <g
                 id="g4379" />
              <g
                 id="g4381"
                 transform="matrix(0.5,0,0,0.5,10,156.5)">
                <g
                   id="g4383">
                  <text
                     transform="translate(36,90.5)"
                     id="text4385">
                    <tspan
                       style="font-size:11px;font-variant:normal;font-weight:normal;writing-mode:lr-tb;fill:#606060;fill-opacity:1;fill-rule:nonzero;stroke:none;font-family:DejaVu Sans;-inkscape-font-specification:DejaVuSans"
                       x="0"
                       y="0"
                       id="tspan4387">6</tspan>
                  </text>
                </g>
              </g>
              <g
                 id="g4389" />
              <g
                 id="g4391"
                 transform="matrix(0.5,0,0,0.5,10,156.5)">
                <g
                   id="g4393">
                  <text
                     transform="translate(36,52)"
                     id="text4395">
                    <tspan
                       style="font-size:11px;font-variant:normal;font-weight:normal;writing-mode:lr-tb;fill:#606060;fill-opacity:1;fill-rule:nonzero;stroke:none;font-family:DejaVu Sans;-inkscape-font-specification:DejaVuSans"
                       x="0"
                       y="0"
                       id="tspan4397">8</tspan>
                  </text>
                </g>
              </g>
              <g
                 id="g4399" />
              <g
                 id="g4401"
                 transform="matrix(0.5,0,0,0.5,10,156.5)">
                <g
                   id="g4403">
                  <text
                     transform="translate(36,129)"
                     id="text4405">
                    <tspan
                       style="font-size:11px;font-variant:normal;font-weight:normal;writing-mode:lr-tb;fill:#606060;fill-opacity:1;fill-rule:nonzero;stroke:none;font-family:DejaVu Sans;-inkscape-font-specification:DejaVuSans"
                       x="0"
                       y="0"
                       id="tspan4407">4</tspan>
                  </text>
                </g>
              </g>
              <g
                 id="g4409" />
              <g
                 id="g4411"
                 transform="matrix(0.5,0,0,0.5,10,156.5)">
                <g
                   id="g4413">
                  <text
                     transform="translate(113,195)"
                     id="text4415">
                    <tspan
                       style="font-size:9px;font-variant:normal;font-weight:normal;writing-mode:lr-tb;fill:#909090;fill-opacity:1;fill-rule:nonzero;stroke:none;font-family:DejaVu Sans;-inkscape-font-specification:DejaVuSans"
                       x="0 7 10 16 22 28 34 40 44 48 53 56 62 68"
                       y="0"
                       sodipodi:role="line"
                       id="tspan4417">Highcharts.com</tspan>
                  </text>
                </g>
              </g>
              <g
                 id="g4419" />
            </g>
          </g>
        </g>
      </g>
    </g>
  </g>
</svg>
