<?xml version="1.0" encoding="UTF-8" standalone="no"?>
<!-- Created with Inkscape (http://www.inkscape.org/) -->

<svg
   xmlns:dc="http://purl.org/dc/elements/1.1/"
   xmlns:cc="http://creativecommons.org/ns#"
   xmlns:rdf="http://www.w3.org/1999/02/22-rdf-syntax-ns#"
   xmlns:svg="http://www.w3.org/2000/svg"
   xmlns="http://www.w3.org/2000/svg"
   xmlns:sodipodi="http://sodipodi.sourceforge.net/DTD/sodipodi-0.dtd"
   xmlns:inkscape="http://www.inkscape.org/namespaces/inkscape"
   width="250"
   height="250"
   id="svg6150"
   version="1.1"
   inkscape:version="0.48.4 r9939"
   sodipodi:docname="pie.svg">
  <defs
     id="defs6152">
    <clipPath
       clipPathUnits="userSpaceOnUse"
       id="clipPath3595">
      <path
         inkscape:connector-curvature="0"
         d="M 0,0 473,0 473,407 0,407 0,0 z"
         clip-rule="evenodd"
         id="path3597" />
    </clipPath>
    <clipPath
       clipPathUnits="userSpaceOnUse"
       id="clipPath3601">
      <path
         inkscape:connector-curvature="0"
         d="m 10,56.5 100,0 0,100 -100,0 0,-100 z"
         clip-rule="evenodd"
         id="path3603" />
    </clipPath>
    <clipPath
       clipPathUnits="userSpaceOnUse"
       id="clipPath3607">
      <path
         inkscape:connector-curvature="0"
         d="m 10,56.5 100,0 0,100 -100,0 0,-100 z"
         clip-rule="evenodd"
         id="path3609" />
    </clipPath>
    <clipPath
       clipPathUnits="userSpaceOnUse"
       id="clipPath3665">
      <path
         inkscape:connector-curvature="0"
         d="M 0,0 473,0 473,407 0,407 0,0 z"
         clip-rule="evenodd"
         id="path3667" />
    </clipPath>
    <clipPath
       clipPathUnits="userSpaceOnUse"
       id="clipPath3671">
      <path
         inkscape:connector-curvature="0"
         d="m 10,56.5 100,0 0,100 -100,0 0,-100 z"
         clip-rule="evenodd"
         id="path3673" />
    </clipPath>
    <clipPath
       clipPathUnits="userSpaceOnUse"
       id="clipPath3677">
      <path
         inkscape:connector-curvature="0"
         d="m 10,56.5 100,0 0,100 -100,0 0,-100 z"
         clip-rule="evenodd"
         id="path3679" />
    </clipPath>
    <clipPath
       clipPathUnits="userSpaceOnUse"
       id="clipPath3683">
      <path
         inkscape:connector-curvature="0"
         d="m 42,80 63,0 0,38.5 -63,0 0,-38.5 z"
         id="path3685" />
    </clipPath>
    <clipPath
       clipPathUnits="userSpaceOnUse"
       id="clipPath3755">
      <path
         inkscape:connector-curvature="0"
         d="M 0,0 473,0 473,407 0,407 0,0 z"
         clip-rule="evenodd"
         id="path3757" />
    </clipPath>
    <clipPath
       clipPathUnits="userSpaceOnUse"
       id="clipPath3761">
      <path
         inkscape:connector-curvature="0"
         d="m 10,56.5 100,0 0,100 -100,0 0,-100 z"
         clip-rule="evenodd"
         id="path3763" />
    </clipPath>
    <clipPath
       clipPathUnits="userSpaceOnUse"
       id="clipPath3767">
      <path
         inkscape:connector-curvature="0"
         d="m 10,56.5 100,0 0,100 -100,0 0,-100 z"
         clip-rule="evenodd"
         id="path3769" />
    </clipPath>
    <clipPath
       clipPathUnits="userSpaceOnUse"
       id="clipPath4707">
      <path
         inkscape:connector-curvature="0"
         d="m 10,256.5 100,0 0,100 -100,0 0,-100 z"
         clip-rule="evenodd"
         id="path4709" />
    </clipPath>
    <clipPath
       clipPathUnits="userSpaceOnUse"
       id="clipPath4713">
      <path
         inkscape:connector-curvature="0"
         d="m 10,256.5 100,0 0,100 -100,0 0,-100 z"
         clip-rule="evenodd"
         id="path4715" />
    </clipPath>
  </defs>
  <sodipodi:namedview
     id="base"
     pagecolor="#ffffff"
     bordercolor="#666666"
     borderopacity="1.0"
     inkscape:pageopacity="0.0"
     inkscape:pageshadow="2"
     inkscape:zoom="0.49497475"
     inkscape:cx="7.672136"
     inkscape:cy="-36.694108"
     inkscape:document-units="px"
     inkscape:current-layer="layer1"
     showgrid="false"
     inkscape:window-width="1855"
     inkscape:window-height="1056"
     inkscape:window-x="65"
     inkscape:window-y="24"
     inkscape:window-maximized="1"
     fit-margin-top="0"
     fit-margin-left="0"
     fit-margin-right="0"
     fit-margin-bottom="0" />
  <metadata
     id="metadata6155">
    <rdf:RDF>
      <cc:Work
         rdf:about="">
        <dc:format>image/svg+xml</dc:format>
        <dc:type
           rdf:resource="http://purl.org/dc/dcmitype/StillImage" />
        <dc:title></dc:title>
      </cc:Work>
    </rdf:RDF>
  </metadata>
  <g
     inkscape:label="Layer 1"
     inkscape:groupmode="layer"
     id="layer1"
     transform="translate(-248.75643,-369.75796)">
    <g
       transform="matrix(2.5,0,0,-2.5,-91.778716,713.99713)"
       id="g6073">
      <g
         transform="matrix(1,0,0,-1,126.21406,394.19567)"
         id="g4705"
         clip-path="url(#clipPath4707)">
        <g
           id="g4711"
           clip-path="url(#clipPath4713)">
          <g
             id="g4717" />
          <g
             id="g4719">
            <path
               d="m 10,256.5 100,0 0,100 -100,0 0,-100 z"
               style="fill:#ffffff;fill-opacity:1;fill-rule:nonzero;stroke:none"
               id="path4721"
               inkscape:connector-curvature="0" />
          </g>
          <g
             id="g4723">
            <path
               d="m 58.495571,291.5 c 10.544766,-0.002 19.572121,7.55986 21.41843,17.94173 L 58.5,313.25 58.495571,291.5 z"
               style="fill:#7cb5ec;fill-opacity:1;fill-rule:nonzero;stroke:none"
               id="path4725"
               inkscape:connector-curvature="0" />
          </g>
          <g
             id="g4727"
             transform="matrix(0.5,0,0,0.5,15,280)">
            <path
               d="M 86.991142,23 C 108.08067,22.995712 126.13538,38.119728 129.828,58.883461 L 87,66.5 86.991142,23 z"
               style="fill:none;stroke:#ffffff;stroke-width:1;stroke-linecap:butt;stroke-linejoin:round;stroke-miterlimit:10;stroke-opacity:1;stroke-dasharray:none"
               id="path4729"
               inkscape:connector-curvature="0" />
          </g>
          <g
             id="g4731">
            <path
               d="m 79.917801,309.46315 c 2.004989,11.33988 -5.176457,22.27723 -16.378929,24.94511 L 58.5,313.25 79.917801,309.46315 z"
               style="fill:#434348;fill-opacity:1;fill-rule:nonzero;stroke:none"
               id="path4733"
               inkscape:connector-curvature="0" />
          </g>
          <g
             id="g4735"
             transform="matrix(0.5,0,0,0.5,15,280)">
            <path
               d="m 129.8356,58.926296 c 4.00998,22.679768 -10.35291,44.554464 -32.757857,49.890234 L 87,66.5 129.8356,58.926296 z"
               style="fill:none;stroke:#ffffff;stroke-width:1;stroke-linecap:butt;stroke-linejoin:round;stroke-miterlimit:10;stroke-opacity:1;stroke-dasharray:none"
               id="path4737"
               inkscape:connector-curvature="0" />
          </g>
          <g
             id="g4739">
            <path
               d="m 63.517712,334.41329 c -5.822911,1.38058 -11.957398,0.30099 -16.959122,-2.98459 -5.001723,-3.28559 -8.42873,-8.48684 -9.474144,-14.37915 L 58.5,313.25 l 5.017712,21.16329 z"
               style="fill:#90ed7d;fill-opacity:1;fill-rule:nonzero;stroke:none"
               id="path4741"
               inkscape:connector-curvature="0" />
          </g>
          <g
             id="g4743"
             transform="matrix(0.5,0,0,0.5,15,280)">
            <path
               d="M 97.035423,108.82659 C 85.389603,111.58774 73.120628,109.42857 63.11718,102.8574 53.113735,96.286232 46.25972,85.883728 44.168892,74.099091 L 87,66.5 97.035423,108.82659 z"
               style="fill:none;stroke:#ffffff;stroke-width:1;stroke-linecap:butt;stroke-linejoin:round;stroke-miterlimit:10;stroke-opacity:1;stroke-dasharray:none"
               id="path4745"
               inkscape:connector-curvature="0" />
          </g>
          <g
             id="g4747">
            <path
               d="m 37.080656,317.02812 c -1.115912,-6.32642 0.621994,-12.82255 4.747757,-17.74668 4.125759,-4.92413 10.217295,-7.7725 16.641382,-7.78142 L 58.5,313.25 37.080656,317.02812 z"
               style="fill:#f7a35c;fill-opacity:1;fill-rule:nonzero;stroke:none"
               id="path4749"
               inkscape:connector-curvature="0" />
          </g>
          <g
             id="g4751"
             transform="matrix(0.5,0,0,0.5,15,280)">
            <path
               d="M 44.161312,74.056252 C 41.929489,61.403397 45.4053,48.411137 53.656826,38.562878 61.908344,28.714619 74.091415,23.017883 86.93959,23.000042 L 87,66.5 44.161312,74.056252 z"
               style="fill:none;stroke:#ffffff;stroke-width:1;stroke-linecap:butt;stroke-linejoin:round;stroke-miterlimit:10;stroke-opacity:1;stroke-dasharray:none"
               id="path4753"
               inkscape:connector-curvature="0" />
          </g>
          <g
             id="g4755" />
          <g
             id="g4757" />
          <g
             id="g4759"
             transform="matrix(0.5,0,0,0.5,10,256.5)">
            <g
               id="g4761">
              <text
                 transform="translate(86.5,25)"
                 id="text4763">
                <tspan
                   style="font-size:18px;font-variant:normal;font-weight:normal;writing-mode:lr-tb;fill:#333333;fill-opacity:1;fill-rule:nonzero;stroke:none;font-family:DejaVu Sans;-inkscape-font-specification:DejaVuSans"
                   x="0 11 16"
                   y="0"
                   sodipodi:role="line"
                   id="tspan4765">pie</tspan>
              </text>
            </g>
          </g>
          <g
             id="g4767" />
          <g
             id="g4769" />
          <g
             id="g4771"
             transform="matrix(0.5,0,0,0.5,15,280)">
            <path
               d="m 139.24489,10.195733 c -5,0 -10.14231,6.128356 -17.21297,14.554845 l -7.07066,8.426489"
               style="fill:none;stroke:#7cb5ec;stroke-width:1;stroke-linecap:butt;stroke-linejoin:miter;stroke-miterlimit:10;stroke-opacity:1;stroke-dasharray:none"
               id="path4773"
               inkscape:connector-curvature="0" />
          </g>
          <g
             id="g4775" />
          <g
             id="g4777"
             transform="matrix(0.5,0,0,0.5,15,280)">
            <path
               d="m 153.40835,106.88891 c -5,0 -11.68389,-4.39607 -20.87426,-10.440668 l -9.19037,-6.044601"
               style="fill:none;stroke:#434348;stroke-width:1;stroke-linecap:butt;stroke-linejoin:miter;stroke-miterlimit:10;stroke-opacity:1;stroke-dasharray:none"
               id="path4779"
               inkscape:connector-curvature="0" />
          </g>
          <g
             id="g4781" />
          <g
             id="g4783"
             transform="matrix(0.5,0,0,0.5,15,280)">
            <path
               d="m 41.611092,127.90836 c 5,0 9.396068,-6.68391 15.44067,-15.87427 l 6.044597,-9.19037"
               style="fill:none;stroke:#90ed7d;stroke-width:1;stroke-linecap:butt;stroke-linejoin:miter;stroke-miterlimit:10;stroke-opacity:1;stroke-dasharray:none"
               id="path4785"
               inkscape:connector-curvature="0" />
          </g>
          <g
             id="g4787" />
          <g
             id="g4789"
             transform="matrix(0.5,0,0,0.5,15,280)">
            <path
               d="m 25.695734,19.25511 c 5,0 11.128355,5.142301 19.554842,12.212965 l 8.426491,7.070663"
               style="fill:none;stroke:#f7a35c;stroke-width:1;stroke-linecap:butt;stroke-linejoin:miter;stroke-miterlimit:10;stroke-opacity:1;stroke-dasharray:none"
               id="path4791"
               inkscape:connector-curvature="0" />
          </g>
          <g
             id="g4793" />
          <g
             id="g4795" />
          <g
             id="g4797"
             transform="matrix(0.5,0,0,0.5,87,280)">
            <g
               id="g4799">
              <text
                 transform="translate(3,15)"
                 id="text4801">
                <tspan
                   style="font-size:11px;font-variant:normal;font-weight:normal;writing-mode:lr-tb;fill:#606060;fill-opacity:1;fill-rule:nonzero;stroke:none;font-family:DejaVu Sans;-inkscape-font-specification:DejaVuSans"
                   x="0"
                   y="0"
                   id="tspan4803">a</tspan>
              </text>
            </g>
          </g>
          <g
             id="g4805" />
          <g
             id="g4807" />
          <g
             id="g4809" />
          <g
             id="g4811"
             transform="matrix(0.5,0,0,0.5,94,328.5)">
            <g
               id="g4813">
              <text
                 transform="translate(3,15)"
                 id="text4815">
                <tspan
                   style="font-size:11px;font-variant:normal;font-weight:normal;writing-mode:lr-tb;fill:#606060;fill-opacity:1;fill-rule:nonzero;stroke:none;font-family:DejaVu Sans;-inkscape-font-specification:DejaVuSans"
                   x="0"
                   y="0"
                   id="tspan4817">b</tspan>
              </text>
            </g>
          </g>
          <g
             id="g4819" />
          <g
             id="g4821" />
          <g
             id="g4823" />
          <g
             id="g4825"
             transform="matrix(0.5,0,0,0.5,29,339)">
            <g
               id="g4827">
              <text
                 transform="translate(0,15)"
                 id="text4829">
                <tspan
                   style="font-size:11px;font-variant:normal;font-weight:normal;writing-mode:lr-tb;fill:#606060;fill-opacity:1;fill-rule:nonzero;stroke:none;font-family:DejaVu Sans;-inkscape-font-specification:DejaVuSans"
                   x="0"
                   y="0"
                   id="tspan4831">c</tspan>
              </text>
            </g>
          </g>
          <g
             id="g4833" />
          <g
             id="g4835" />
          <g
             id="g4837" />
          <g
             id="g4839"
             transform="matrix(0.5,0,0,0.5,20.5,284.5)">
            <g
               id="g4841">
              <text
                 transform="translate(0,15)"
                 id="text4843">
                <tspan
                   style="font-size:11px;font-variant:normal;font-weight:normal;writing-mode:lr-tb;fill:#606060;fill-opacity:1;fill-rule:nonzero;stroke:none;font-family:DejaVu Sans;-inkscape-font-specification:DejaVuSans"
                   x="0"
                   y="0"
                   id="tspan4845">d</tspan>
              </text>
            </g>
          </g>
          <g
             id="g4847" />
          <g
             id="g4849" />
          <g
             id="g4851" />
          <g
             id="g4853"
             transform="matrix(0.5,0,0,0.5,10,256.5)">
            <g
               id="g4855">
              <text
                 transform="translate(113,195)"
                 id="text4857">
                <tspan
                   style="font-size:9px;font-variant:normal;font-weight:normal;writing-mode:lr-tb;fill:#909090;fill-opacity:1;fill-rule:nonzero;stroke:none;font-family:DejaVu Sans;-inkscape-font-specification:DejaVuSans"
                   x="0 7 10 16 22 28 34 40 44 48 53 56 62 68"
                   y="0"
                   sodipodi:role="line"
                   id="tspan4859">Highcharts.com</tspan>
              </text>
            </g>
          </g>
          <g
             id="g4861" />
        </g>
      </g>
    </g>
  </g>
</svg>
